Coordinates
version=1
nRows=19
nColumns=34
inDegrees=yes

Units are S.I. units (second, meters, Newtons, ...)
If the header above contains a line with 'inDegrees', this indicates whether rotational values are in degrees (yes) or radians (no).

endheader
time	pelvis_tilt	pelvis_list	pelvis_rotation	pelvis_tx	pelvis_ty	pelvis_tz	hip_flexion_r	hip_adduction_r	hip_rotation_r	knee_angle_r	ankle_angle_r	subtalar_angle_r	mtp_angle_r	hip_flexion_l	hip_adduction_l	hip_rotation_l	knee_angle_l	ankle_angle_l	subtalar_angle_l	mtp_angle_l	lumbar_extension	lumbar_bending	lumbar_rotation	arm_flex_r	arm_add_r	arm_rot_r	elbow_flex_r	pro_sup_r	arm_flex_l	arm_add_l	arm_rot_l	elbow_flex_l	pro_sup_l
      1.01666670	     -2.99894881	      2.00522493	     -3.34533115	      1.80511919	      0.90099345	     -0.19459155	     -0.83260252	     -7.21889084	      2.69662006	      0.00000000	      2.81224808	    -19.07652484	      0.00000000	     -2.36829019	     -1.96175028	     -3.59948357	      0.00000000	      3.26798862	     -6.57908659	      0.00000000	     -6.33669376	     -0.16870667	     -1.28961631	     12.06710108	     -8.45034369	     41.15340090	     89.38313767	     94.90537929	      9.72802297	     -4.98487237	     29.73567961	     83.83283283	     92.81171313
      1.03333330	     -2.99859595	      1.96791221	     -3.41224126	      1.80516449	      0.90150662	     -0.19483683	     -0.81628289	     -7.21836389	      2.67030140	      0.00000000	      2.75964524	    -19.08719972	      0.00000000	     -2.41552600	     -1.95678484	     -3.48646346	      0.00000000	      3.38754813	     -6.55515771	      0.00000000	     -6.32295262	     -0.10354472	     -1.36313399	     12.02136204	     -8.45102360	     41.12160526	     89.33770255	     94.87521645	      9.71144159	     -4.91962791	     29.76718150	     83.77519887	     92.78165377
      1.05000000	     -3.00622224	      1.95750024	     -3.31002943	      1.80519876	      0.90177705	     -0.19506813	     -0.83990454	     -7.22704235	      2.67766215	      0.00000000	      2.73156148	    -19.08254141	      0.00000000	     -2.39643855	     -1.95271333	     -3.47346688	      0.00000000	      3.44466059	     -6.56066924	      0.00000000	     -6.32808976	     -0.08486543	     -1.35179611	     12.01964905	     -8.44981198	     41.09959372	     89.31205898	     94.85812750	      9.68457367	     -4.92178769	     29.77081233	     83.73351170	     92.76421280
      1.06666670	     -3.00570643	      1.95328419	     -3.30914974	      1.80523852	      0.90188030	     -0.19501722	     -0.83717614	     -7.22912006	      2.67744354	      0.00000000	      2.73135363	    -19.08266554	      0.00000000	     -2.39805764	     -1.95101543	     -3.47307736	      0.00000000	      3.44523270	     -6.56061123	      0.00000000	     -6.32818607	     -0.08468967	     -1.35234998	     12.01933251	     -8.45006938	     41.09921118	     89.31165136	     94.85789008	      9.68445157	     -4.92171203	     29.77090142	     83.73294602	     92.76397822
      1.08333330	     -3.01413846	      1.96286445	     -3.34031733	      1.80530845	      0.90182530	     -0.19519246	     -0.80080285	     -7.27231688	      2.65668147	      0.00000000	      2.69527506	    -19.08271413	      0.00000000	     -2.40325312	     -1.90523613	     -3.43971783	      0.00000000	      3.51982548	     -6.56268473	      0.00000000	     -6.36992617	     -0.02817989	     -1.44205603	     11.96465005	     -8.51094989	     41.04040964	     89.24686491	     94.82646783	      9.64448646	     -4.91250691	     29.79115328	     83.64513028	     92.73418176
      1.10000000	     -3.00988920	      1.96096100	     -3.33770580	      1.80544073	      0.90170848	     -0.19513910	     -0.79855189	     -7.27230933	      2.65706625	      0.00000000	      2.69490133	    -19.08241054	      0.00000000	     -2.40226661	     -1.90407196	     -3.43984504	      0.00000000	      3.52035020	     -6.56280347	      0.00000000	     -6.36981745	     -0.02831152	     -1.44198942	     11.96476704	     -8.51076188	     41.03990441	     89.24651737	     94.82615989	      9.64409226	     -4.91260303	     29.79121951	     83.64432481	     92.73388024
      1.11666670	     -3.00526932	      1.96226949	     -3.33619499	      1.80566047	      0.90163189	     -0.19519336	     -0.79716985	     -7.27048626	      2.65774002	      0.00000000	      2.69443083	    -19.08192031	      0.00000000	     -2.39988954	     -1.90428840	     -3.43992755	      0.00000000	      3.52079580	     -6.56283489	      0.00000000	     -6.37000640	     -0.02847754	     -1.44216195	     11.96477548	     -8.51054464	     41.03943516	     89.24614828	     94.82586273	      9.64378030	     -4.91267647	     29.79134996	     83.64347306	     92.73359496
      1.13333330	     -3.00334761	      1.96642456	     -3.33635135	      1.80595908	      0.90191522	     -0.19540133	     -0.79779163	     -7.26760138	      2.65862785	      0.00000000	      2.69379461	    -19.08132448	      0.00000000	     -2.39680726	     -1.90672209	     -3.43988664	      0.00000000	      3.52124044	     -6.56275977	      0.00000000	     -6.37021909	     -0.02888454	     -1.44261035	     11.96468445	     -8.51012675	     41.03897595	     89.24578580	     94.82553652	      9.64365072	     -4.91273470	     29.79154006	     83.64254050	     92.73328490
      1.15000000	     -2.99838613	      1.89753034	     -3.26832747	      1.80642431	      0.90251063	     -0.19584514	     -0.86966959	     -7.18103882	      2.74833052	      0.00000000	      2.59008121	    -18.99800200	      0.00000000	     -2.41113006	     -1.99411319	     -3.41623501	      0.00000000	      3.55237142	     -6.51461604	      0.00000000	     -6.34520399	     -0.03204864	     -1.57302934	     11.87165604	     -8.48227298	     40.98815802	     89.17944604	     94.77927948	      9.59138566	     -4.88680525	     29.84934548	     83.50139483	     92.69077262
      1.16666670	     -3.00072421	      1.90431066	     -3.27228051	      1.80650860	      0.90273221	     -0.19608075	     -0.87100356	     -7.17844610	      2.74731508	      0.00000000	      2.58987854	    -18.99839855	      0.00000000	     -2.41147840	     -1.99707867	     -3.41571626	      0.00000000	      3.55232932	     -6.51408372	      0.00000000	     -6.34515063	     -0.03131798	     -1.57347635	     11.87160464	     -8.48198610	     40.98769736	     89.17902777	     94.77896549	      9.59181792	     -4.88691272	     29.84941770	     83.50067151	     92.69048062
      1.18333330	     -3.00244929	      1.90612634	     -3.39022345	      1.80663751	      0.90265988	     -0.19613369	     -0.85791532	     -7.18058305	      2.68990960	      0.00000000	      2.57141073	    -19.01710325	      0.00000000	     -2.45519267	     -1.99028125	     -3.39146023	      0.00000000	      3.54332784	     -6.48382144	      0.00000000	     -6.33406974	      0.01076408	     -1.60218261	     11.86037231	     -8.48226856	     40.96552842	     89.15534145	     94.76464121	      9.60207466	     -4.88628089	     29.85795948	     83.46573256	     92.67764811
      1.20000000	     -3.00464977	      1.91112066	     -3.39293402	      1.80670222	      0.90245120	     -0.19619946	     -0.86210109	     -7.17797323	      2.68862754	      0.00000000	      2.57045532	    -19.01735319	      0.00000000	     -2.45451537	     -1.99162464	     -3.39131095	      0.00000000	      3.54304567	     -6.48319375	      0.00000000	     -6.33432172	      0.01172887	     -1.60229245	     11.86065050	     -8.48239402	     40.96475445	     89.15460679	     94.76423692	      9.60216622	     -4.88649551	     29.85809294	     83.46463106	     92.67728959
      1.21666670	     -2.99221255	      1.91462140	     -3.48732454	      1.80699177	      0.90219035	     -0.19618930	     -0.87785884	     -7.17636278	      2.60226591	      0.00000000	      2.51831620	    -19.04251468	      0.00000000	     -2.51295486	     -1.98962897	     -3.37426313	      0.00000000	      3.52154419	     -6.44381979	      0.00000000	     -6.31304260	      0.05985068	     -1.61685852	     11.86870148	     -8.50137522	     40.91889763	     89.11728836	     94.74260585	      9.60410000	     -4.90357952	     29.86414950	     83.40780849	     92.65837912
      1.23333330	     -2.99371780	      1.91902475	     -3.48863608	      1.80709051	      0.90192011	     -0.19625033	     -0.88271210	     -7.17458688	      2.60129459	      0.00000000	      2.51710016	    -19.04264833	      0.00000000	     -2.51140383	     -1.99164097	     -3.37430840	      0.00000000	      3.52130162	     -6.44333747	      0.00000000	     -6.31351414	      0.06043590	     -1.61656408	     11.86927494	     -8.50168803	     40.91799184	     89.11656101	     94.74220456	      9.60426785	     -4.90414191	     29.86403739	     83.40666941	     92.65801901
      1.25000000	     -3.00725342	      1.92637443	     -3.49379382	      1.80748022	      0.90160327	     -0.19613358	     -0.90061738	     -7.17568862	      2.59211793	      0.00000000	      2.50762319	    -19.04488413	      0.00000000	     -2.51874564	     -1.99913385	     -3.37152581	      0.00000000	      3.51912120	     -6.43838478	      0.00000000	     -6.31320642	      0.06517746	     -1.61534001	     11.87289044	     -8.50573249	     40.91037156	     89.11123130	     94.73902163	      9.60628849	     -4.91026357	     29.86238573	     83.39779605	     92.65515016
      1.26666670	     -3.00584305	      1.92586216	     -3.49325391	      1.80750690	      0.90130325	     -0.19599867	     -0.89962840	     -7.17603873	      2.59114994	      0.00000000	      2.50650413	    -19.04505599	      0.00000000	     -2.52117642	     -1.99914015	     -3.37075657	      0.00000000	      3.51879380	     -6.43759010	      0.00000000	     -6.31302720	      0.06585646	     -1.61536115	     11.87314964	     -8.50635036	     40.90952745	     89.11060767	     94.73866171	      9.60653618	     -4.91092677	     29.86223496	     83.39678928	     92.65482733
      1.28333330	     -2.96802251	      1.91391939	     -3.56697300	      1.80766198	      0.90110232	     -0.19565293	     -0.91723184	     -7.15128822	      2.52796124	      0.00000000	      2.42825145	    -19.05956038	      0.00000000	     -2.60867623	     -2.02880068	     -3.28274835	      0.00000000	      3.49568547	     -6.36866242	      0.00000000	     -6.26688581	      0.07831692	     -1.60348972	     11.88899045	     -8.52021759	     40.86288854	     89.07669084	     94.71393863	      9.62708666	     -4.95935020	     29.85718050	     83.33820781	     92.63240491
      1.30000000	     -2.96576554	      1.92113448	     -3.55370466	      1.80776843	      0.90093400	     -0.19563227	     -0.90780794	     -7.14650898	      2.52825263	      0.00000000	      2.42341295	    -19.05887687	      0.00000000	     -2.62138397	     -2.03252274	     -3.28069843	      0.00000000	      3.49535361	     -6.36644071	      0.00000000	     -6.26727371	      0.07917566	     -1.60084964	     11.89028316	     -8.51859072	     40.86131869	     89.07448895	     94.71241403	      9.62737492	     -4.95966255	     29.85849408	     83.33517904	     92.63104137
      1.31666670	     -2.96420009	      1.92571919	     -3.55256625	      1.80786225	      0.90092851	     -0.19578281	     -0.90502016	     -7.14395103	      2.52832670	      0.00000000	      2.42246230	    -19.05871662	      0.00000000	     -2.62385122	     -2.03493230	     -3.27974086	      0.00000000	      3.49512937	     -6.36576139	      0.00000000	     -6.26724527	      0.07899090	     -1.60027115	     11.89064684	     -8.51788944	     40.86116525	     89.07415749	     94.71214809	      9.62745356	     -4.95955637	     29.85891548	     83.33474205	     92.63080634
